<svg width="20" height="20" viewBox="0 0 20 20" fill="none" xmlns="http://www.w3.org/2000/svg">
<g clip-path="url(#clip0_2187_1780)">
<rect x="5" y="9.5" width="2" height="2" rx="0.458333" fill="white"/>
<rect x="5" y="13.5" width="2" height="2" rx="0.458333" fill="white"/>
<rect x="9" y="9.5" width="2" height="2" rx="0.458333" fill="white"/>
<rect x="9" y="13.5" width="2" height="2" rx="0.458333" fill="white"/>
<rect x="13" y="9.5" width="2" height="2" rx="0.458333" fill="white"/>
<rect x="13" y="13.5" width="2" height="2" rx="0.458333" fill="white"/>
<path d="M1.75 6.75H18.25V18.0833C18.25 18.1754 18.1754 18.25 18.0833 18.25H1.91667C1.82462 18.25 1.75 18.1754 1.75 18.0833V6.75Z" stroke="white" stroke-width="1.5"/>
<path d="M1.75 6.75H18.25V2.91667C18.25 2.82462 18.1754 2.75 18.0833 2.75H1.91667C1.82462 2.75 1.75 2.82462 1.75 2.91667V6.75Z" stroke="white" stroke-width="1.5"/>
<mask id="path-9-inside-1_2187_1780" fill="white">
<rect width="2.5" height="2.5" rx="0.458333" transform="matrix(1 0 0 -1 4.5 3.5)"/>
</mask>
<rect width="2.5" height="2.5" rx="0.458333" transform="matrix(1 0 0 -1 4.5 3.5)" stroke="white" stroke-width="2.5" mask="url(#path-9-inside-1_2187_1780)"/>
<mask id="path-10-inside-2_2187_1780" fill="white">
<rect width="2.5" height="2.5" rx="0.458333" transform="matrix(1 0 0 -1 13 3.5)"/>
</mask>
<rect width="2.5" height="2.5" rx="0.458333" transform="matrix(1 0 0 -1 13 3.5)" stroke="white" stroke-width="2.5" mask="url(#path-10-inside-2_2187_1780)"/>
</g>
<defs>
<clipPath id="clip0_2187_1780">
<rect width="20" height="20" fill="white"/>
</clipPath>
</defs>
</svg>
