<svg width="25" height="24" viewBox="0 0 25 24" fill="none" xmlns="http://www.w3.org/2000/svg">
<path fill-rule="evenodd" clip-rule="evenodd" d="M8.45549 2H4.24496V3.05263H2.66602V7.26316H22.666V3.05263H21.0871V2H16.8765V3.05263H8.45549V2ZM2.66602 8.31579H22.666V20C22.666 21.1046 21.7706 22 20.666 22H5.69632H4.66602C3.56145 22 2.66602 21.1046 2.66602 20V18.655V8.31579ZM8.45549 12H6.35023V14.1053H8.45549V12ZM6.35023 16.2105H8.45549V18.3158H6.35023V16.2105ZM13.7186 12H11.6134V14.1053H13.7186V12ZM11.6134 16.2105H13.7186V18.3158H11.6134V16.2105ZM18.9818 12H16.8765V14.1053H18.9818V12ZM16.8765 16.2105H18.9818V18.3158H16.8765V16.2105Z" fill="currentColor"/>
</svg>
