<svg width="24" height="24" viewBox="0 0 24 24" fill="none" xmlns="http://www.w3.org/2000/svg">
<g filter="url(#filter0_b_1378_11243)">
<path fill-rule="evenodd" clip-rule="evenodd" d="M1.99609 3.99805C1.99609 2.89348 2.89152 1.99805 3.99609 1.99805H20.0001C21.1047 1.99805 22.0001 2.89348 22.0001 3.99805V20.0021C22.0001 21.1067 21.1047 22.0021 20.0001 22.0021H3.9961C2.89153 22.0021 1.99609 21.1067 1.99609 20.0021V3.99805ZM19.0002 12.9995H9.00015V11.4884V10.9995H10.5153H19.0002V12.9995ZM9.00015 7.99954H19.0002V5.99954H10.5153H9.00015V6.48843V7.99954ZM7.00015 11.9995C7.00015 12.5518 6.55244 12.9995 6.00015 12.9995C5.44787 12.9995 5.00015 12.5518 5.00015 11.9995C5.00015 11.4473 5.44787 10.9995 6.00015 10.9995C6.55244 10.9995 7.00015 11.4473 7.00015 11.9995ZM6.00015 7.99954C6.55244 7.99954 7.00015 7.55183 7.00015 6.99954C7.00015 6.44726 6.55244 5.99954 6.00015 5.99954C5.44787 5.99954 5.00015 6.44726 5.00015 6.99954C5.00015 7.55183 5.44787 7.99954 6.00015 7.99954ZM19.0002 15.9995H9.00015V17.5107V17.9995H10.5153H19.0002V15.9995ZM6.00015 15.9995C6.55244 15.9995 7.00015 16.4473 7.00015 16.9995C7.00015 17.5518 6.55244 17.9995 6.00015 17.9995C5.44787 17.9995 5.00015 17.5518 5.00015 16.9995C5.00015 16.4473 5.44787 15.9995 6.00015 15.9995Z" fill="currentColor"/>
</g>
<defs>
<filter id="filter0_b_1378_11243" x="0.989101" y="0.991054" width="22.0179" height="22.0181" filterUnits="userSpaceOnUse" color-interpolation-filters="sRGB">
<feFlood flood-opacity="0" result="BackgroundImageFix"/>
<feGaussianBlur in="BackgroundImageFix" stdDeviation="0.503497"/>
<feComposite in2="SourceAlpha" operator="in" result="effect1_backgroundBlur_1378_11243"/>
<feBlend mode="normal" in="SourceGraphic" in2="effect1_backgroundBlur_1378_11243" result="shape"/>
</filter>
</defs>
</svg>
